<?xml version="1.0" encoding="iso-8859-1"?>
<!-- Uploaded to: SVG Repo, www.svgrepo.com, Generator: SVG Repo Mixer Tools -->
<svg fill="#000000" height="800px" width="800px" version="1.1" id="Layer_1" xmlns="http://www.w3.org/2000/svg" xmlns:xlink="http://www.w3.org/1999/xlink" 
	 viewBox="0 0 503.607 503.607" xml:space="preserve">
<g>
	<g>
		<g>
			<path d="M279.525,176.262l106.572,71.051v-62.657c0-13.883-11.289-25.18-25.18-25.18h-25.18v-25.18
				c0-13.883-11.289-25.18-25.18-25.18h-16.787V25.18c0-13.883-11.289-25.18-25.18-25.18h-33.574
				c-13.883,0-25.18,11.298-25.18,25.18v83.934h-16.787c-13.883,0-25.18,11.298-25.18,25.18v25.18h-25.18
				c-13.883,0-25.18,11.298-25.18,25.18v62.657l106.58-71.051H279.525z M251.802,33.574c4.642,0,8.394,3.752,8.394,8.393
				c0,4.642-3.752,8.393-8.394,8.393c-4.633,0-8.393-3.752-8.393-8.393C243.408,37.326,247.168,33.574,251.802,33.574z
				 M184.654,134.295c0-4.633,3.769-8.393,8.393-8.393h25.18h67.148h25.18c4.633,0,8.393,3.76,8.393,8.393v25.18h-67.114h-0.059
				h-67.122V134.295z"/>
			<path d="M251.805,177.958L117.51,267.482v119.103l134.295,106.32L386.1,386.585V267.482L251.805,177.958z M218.231,293.77h67.148
				c4.633,0,8.393,3.752,8.393,8.393c0,4.642-3.76,8.393-8.393,8.393h-67.148c-4.633,0-8.393-3.752-8.393-8.393
				C209.838,297.522,213.598,293.77,218.231,293.77z M310.559,352.525H193.051c-4.633,0-8.393-3.752-8.393-8.393
				c0-4.642,3.76-8.393,8.393-8.393h117.508c4.633,0,8.393,3.752,8.393,8.393C318.953,348.773,315.192,352.525,310.559,352.525z"/>
			<path d="M360.92,503.607c13.883,0,25.18-11.298,25.18-25.18v-70.438l-120.773,95.618H360.92z"/>
			<path d="M117.51,478.426c0,13.883,11.298,25.18,25.18,25.18h95.593L117.51,407.988V478.426z"/>
		</g>
	</g>
</g>
</svg>